<svg xmlns="http://www.w3.org/2000/svg" xmlns:xlink="http://www.w3.org/1999/xlink"><symbol id="icon-check" viewBox="0 0 13 10">
<path fill-rule="evenodd" clip-rule="evenodd" d="M11.9993 1.02214C12.3895 1.41271 12.3894 2.04565 11.999 2.43606L5.4682 8.96683C5.08962 9.34541 4.48003 9.35866 4.08537 8.99688L0.825888 6.00903C0.405324 5.62351 0.392008 4.96483 0.796649 4.56263V4.56263C1.17554 4.18602 1.78353 4.17373 2.17734 4.53472L4.37811 6.5521C4.57545 6.73299 4.88024 6.72636 5.06953 6.53707L10.5847 1.02185C10.9754 0.631214 11.6088 0.631344 11.9993 1.02214V1.02214Z" fill="#64B851"/>
</symbol><symbol id="icon-cross" viewBox="0 0 12 12">
<path clip-rule="evenodd" d="M9.53553 1.05028C9.92605 0.659754 10.5592 0.659754 10.9497 1.05028C11.3403 1.4408 11.3403 2.07397 10.9497 2.46449L7.41421 6.00003L10.9497 9.53556C11.3403 9.92608 11.3403 10.5592 10.9497 10.9498C10.5592 11.3403 9.92605 11.3403 9.53553 10.9498L6 7.41424L2.46446 10.9498C2.07394 11.3403 1.44077 11.3403 1.05025 10.9498C0.659724 10.5592 0.659724 9.92608 1.05025 9.53556L4.58578 6.00003L1.05025 2.46449C0.659724 2.07397 0.659724 1.4408 1.05025 1.05028C1.44077 0.659754 2.07394 0.659754 2.46446 1.05028L6 4.58581L9.53553 1.05028Z"/>
</symbol><symbol id="icon-key" viewBox="0 0 13 13">
<path fill-rule="evenodd" clip-rule="evenodd" d="M7.68294 5.5634C7.88707 5.08313 8 4.55475 8 4C8 1.79086 6.20914 0 4 0C1.79086 0 0 1.79086 0 4C0 6.20914 1.79086 8 4 8C4.55379 8 5.0813 7.88746 5.5609 7.684L6.68825 8.81135C6.74736 8.87046 6.83209 8.89611 6.91406 8.87972L8.18262 8.62601C8.35763 8.59101 8.51189 8.74538 8.47676 8.92036L8.26977 9.95139C8.23466 10.1263 8.38877 10.2806 8.56373 10.2458L9.59747 10.0398C9.77232 10.005 9.92639 10.1591 9.89148 10.334L9.6379 11.6036C9.62153 11.6856 9.64719 11.7703 9.70628 11.8294L9.8474 11.9705C9.9239 12.047 10.0231 12.0966 10.1302 12.1119L11.1202 12.2533C11.7802 12.3476 12.3458 11.7819 12.2516 11.122L12.1101 10.132C12.0948 10.0249 12.0452 9.92568 11.9687 9.84918L7.68294 5.5634ZM3.5 5C4.32843 5 5 4.32843 5 3.5C5 2.67157 4.32843 2 3.5 2C2.67157 2 2 2.67157 2 3.5C2 4.32843 2.67157 5 3.5 5Z" fill="#383736"/>
</symbol></svg>