<svg width="12" height="12" viewBox="0 0 12 12" fill="currentColor" xmlns="http://www.w3.org/2000/svg">
<path clip-rule="evenodd" d="M9.53553 1.05028C9.92605 0.659754 10.5592 0.659754 10.9497 1.05028C11.3403 1.4408 11.3403 2.07397 10.9497 2.46449L7.41421 6.00003L10.9497 9.53556C11.3403 9.92608 11.3403 10.5592 10.9497 10.9498C10.5592 11.3403 9.92605 11.3403 9.53553 10.9498L6 7.41424L2.46446 10.9498C2.07394 11.3403 1.44077 11.3403 1.05025 10.9498C0.659724 10.5592 0.659724 9.92608 1.05025 9.53556L4.58578 6.00003L1.05025 2.46449C0.659724 2.07397 0.659724 1.4408 1.05025 1.05028C1.44077 0.659754 2.07394 0.659754 2.46446 1.05028L6 4.58581L9.53553 1.05028Z"/>
</svg>
